PathFileType	4	(X/Y/Z)	/Users/itak/Documents/Research/Walk-IL/dataset/trc/00495_00183.trc
DataRate	CameraRate	NumFrames	NumMarkers	Units	OrigDataRate	OrigDataStartFrame	OrigNumFrames
100.000000	100.000000	4	53	mm	100.000000	534	713
Frame#	Time	RPSI			LPSI			L3			STRN			T10			C7			CLAV			RBAK			LBAK			LSHO			LUPA			LAEL			LAOL			LWTS			LWPS			LFRA			LIFD			LHPS			LHTS			RSHO			RUPA			RAEL			RAOL			RWTS			RWPS			RFRA			RIFD			RHTS			RHPS			RBHD			LFHD			RFHD			LBHD			LHIP			RHIP			RASI			LASI			LKNE			LTHI			LANK			LTIP			LTOE			LMT1			LMT5			LHEE			RKNE			RANK			RTIP			RTOE			RMT1			RMT5			RHEE			RTHI			
		X1	Y1	Z1	X2	Y2	Z2	X3	Y3	Z3	X4	Y4	Z4	X5	Y5	Z5	X6	Y6	Z6	X7	Y7	Z7	X8	Y8	Z8	X9	Y9	Z9	X10	Y10	Z10	X11	Y11	Z11	X12	Y12	Z12	X13	Y13	Z13	X14	Y14	Z14	X15	Y15	Z15	X16	Y16	Z16	X17	Y17	Z17	X18	Y18	Z18	X19	Y19	Z19	X20	Y20	Z20	X21	Y21	Z21	X22	Y22	Z22	X23	Y23	Z23	X24	Y24	Z24	X25	Y25	Z25	X26	Y26	Z26	X27	Y27	Z27	X28	Y28	Z28	X29	Y29	Z29	X30	Y30	Z30	X31	Y31	Z31	X32	Y32	Z32	X33	Y33	Z33	X34	Y34	Z34	X35	Y35	Z35	X36	Y36	Z36	X37	Y37	Z37	X38	Y38	Z38	X39	Y39	Z39	X40	Y40	Z40	X41	Y41	Z41	X42	Y42	Z42	X43	Y43	Z43	X44	Y44	Z44	X45	Y45	Z45	X46	Y46	Z46	X47	Y47	Z47	X48	Y48	Z48	X49	Y49	Z49	X50	Y50	Z50	X51	Y51	Z51	X52	Y52	Z52	X53	Y53	Z53	

535	5.34	20.83929634094238	949.27587890625	278.278076171875	78.13739776611328	946.5625	168.6190338134766	48.5686149597168	1025.991088867188	226.6573486328125	251.6047973632812	1180.46728515625	309.97412109375	33.67570877075195	1131.499389648438	227.2773284912109	85.52151489257812	1358.897094726562	251.1540069580078	221.6300201416016	1277.098754882812	300.7462768554688	-0.4669030606746674	1240.9755859375	310.3526000976562	87.11922454833984	1308.050537109375	158.2548065185547	203.4559631347656	1348.4619140625	121.9643936157227	206.1589202880859	1222.068969726562	59.50891876220703	214.5693817138672	1013.55224609375	31.08649635314941	121.5891418457031	1007.263916015625	67.94065093994141	295.5522766113281	837.9180908203125	96.52339935302734	239.7203979492188	797.4943237304688	33.69897842407227	236.6634063720703	941.4796142578125	35.53926086425781	314.1140441894531	681.4992065429688	105.7774810791016	266.8179321289062	745.97119140625	44.3963508605957	318.7772216796875	762.2547607421875	80.10964965820312	82.41268920898438	1350.261352539062	409.3962707519531	42.97514343261719	1283.652099609375	455.5357666015625	14.0076150894165	1016.455322265625	492.7850646972656	-24.52883529663086	1003.294006347656	440.0134582519531	117.4475631713867	816.5927734375	499.694091796875	28.69369125366211	794.0891723632812	513.6766357421875	14.09958267211914	961.332763671875	499.9492797851562	116.3823013305664	658.3883056640625	509.3305969238281	122.9271392822266	727.1843872070312	530.6063842773438	52.09396362304688	721.7435302734375	526.3745727539062	113.5006790161133	1511.154296875	349.6488037109375	287.3213806152344	1556.204345703125	261.5881042480469	241.2211303710938	1554.070190429688	380.0145874023438	159.2732849121094	1512.397705078125	195.1203460693359	242.5108184814453	884.4560546875	106.5714950561523	57.18807983398438	848.9508666992188	435.96142578125	175.6006927490234	898.9302368164062	427.2518615722656	283.5665588378906	921.2333374023438	212.0070953369141	384.8348388671875	497.6088562011719	188.0213012695312	337.959228515625	642.3818359375	149.8005065917969	434.7915649414062	59.23795318603516	172.0430603027344	411.9618530273438	346.8878479003906	177.1321716308594	572.9451293945312	105.3020095825195	309.5113525390625	497.0046081542969	81.63419342041016	309.1586303710938	533.2167358398438	78.17429351806641	210.9752807617188	368.0942993164062	45.03868103027344	209.3178253173828	91.73020172119141	461.3197937011719	371.7681579589844	-6.123965740203857	47.89582443237305	260.2372741699219	92.48796081542969	317.1865234375	335.9678039550781	191.2216339111328	37.05863952636719	316.0258178710938	150.9594421386719	40.85821914672852	251.7802276611328	86.28543853759766	40.84436416625977	325.4664916992188	-30.70201683044434	40.97572326660156	193.7241363525391	87.72540283203125	718.1728515625	439.7621765136719	
536	5.350000000000001	24.33831024169922	948.8050537109375	279.2022399902344	81.80060577392578	946.0513305664062	169.6418304443359	52.02347183227539	1025.381958007812	227.5010375976562	254.6573333740234	1179.82666015625	311.3259887695312	37.03409194946289	1130.850708007812	227.976318359375	88.73658752441406	1358.234375	252.1219482421875	224.7198181152344	1276.478881835938	302.0813293457031	2.568576097488403	1240.314331054688	310.9295349121094	90.63678741455078	1307.421508789062	159.1803588867188	207.0768737792969	1347.86181640625	123.2404479980469	210.0807189941406	1221.465209960938	60.78529739379883	218.6477355957031	1012.952087402344	32.3983039855957	125.4951858520508	1006.638549804688	68.92063903808594	299.2904968261719	837.19775390625	97.97080993652344	243.5125732421875	796.879150390625	34.90412139892578	240.6477355957031	940.83056640625	36.83620834350586	317.55810546875	680.7293090820312	107.1013336181641	270.6166381835938	745.3092041015625	45.60473251342773	322.4506530761719	761.5263671875	81.52368927001953	85.10027313232422	1349.51416015625	410.322265625	45.52645492553711	1282.864624023438	456.2877197265625	16.46495056152344	1015.572570800781	493.2647399902344	-21.87284851074219	1002.489196777344	440.3688354492188	119.5010147094727	815.3638916015625	500.1658630371094	30.6130542755127	793.1190795898438	513.8753662109375	16.50360488891602	960.4510498046875	500.3846740722656	117.8283996582031	657.1248168945312	509.5639038085938	124.6044769287109	725.8540649414062	530.9210205078125	53.72629547119141	720.709716796875	526.4879150390625	116.9540100097656	1510.667602539062	350.8200378417969	290.9838562011719	1555.239990234375	262.8931579589844	244.7680511474609	1553.235107421875	381.2886047363281	162.8667602539062	1511.726806640625	196.2993774414062	246.2136077880859	883.8084106445312	107.8671951293945	60.14734268188477	848.490234375	436.92626953125	178.9553680419922	898.4346923828125	428.4956970214844	287.0964660644531	920.6162719726562	213.3067474365234	387.5713500976562	496.948974609375	189.2460784912109	341.0379333496094	641.6094970703125	151.1226348876953	443.3572998046875	58.96052551269531	176.5261993408203	416.5607604980469	346.386962890625	179.3313903808594	579.8037719726562	107.8224334716797	314.5033874511719	504.2226867675781	83.17972564697266	313.8504943847656	541.262939453125	79.26139831542969	215.9222717285156	376.5971069335938	44.15300750732422	213.3786773681641	93.69784545898438	460.97412109375	372.3427124023438	-6.050566673278809	48.00595092773438	260.237060546875	93.79058074951172	316.8921508789062	336.2678527832031	191.2173309326172	37.04658126831055	316.0235290527344	150.9269714355469	40.77898025512695	251.7509307861328	86.32435607910156	40.84400939941406	325.4858703613281	-30.69220161437988	41.24349594116211	193.7156066894531	90.77709197998047	717.7362060546875	440.6873474121094	
537	5.36	27.89801788330078	948.3516845703125	280.0874328613281	85.52466583251953	945.5389404296875	170.6233978271484	55.53758239746094	1024.775512695312	228.3169860839844	257.7587280273438	1179.178588867188	312.6537170410156	40.46386337280273	1130.201049804688	228.6470642089844	92.01654815673828	1357.573974609375	253.0490112304688	227.8872528076172	1275.857666015625	303.3960266113281	5.678225517272949	1239.646850585938	311.4686584472656	94.23406982421875	1306.790283203125	160.0695190429688	210.7654724121094	1347.253051757812	124.4993515014648	214.0861511230469	1220.866821289062	62.02764129638672	222.8052978515625	1012.351928710938	33.678466796875	129.4902191162109	1006.017639160156	69.85296630859375	303.0716552734375	836.4556884765625	99.37868499755859	247.3390808105469	796.2391967773438	36.06159210205078	244.6925201416016	940.1671752929688	38.09285354614258	321.0363159179688	679.9385986328125	108.404167175293	274.44482421875	744.6228637695312	46.78281402587891	326.156005859375	760.7686157226562	82.89962768554688	87.84859466552734	1348.778198242188	411.2095947265625	48.1345329284668	1282.086181640625	457.0066833496094	19.00701522827148	1014.697692871094	493.7202453613281	-19.1270809173584	1001.694396972656	440.677978515625	121.6107635498047	814.1268310546875	500.6207580566406	32.58678817749023	792.1533813476562	514.0264892578125	18.98465728759766	959.5833740234375	500.7765197753906	119.289192199707	655.8562622070312	509.7507019042969	126.3060455322266	724.5095825195312	531.2089233398438	55.37155532836914	719.6824951171875	526.560791015625	120.4237213134766	1510.18115234375	351.9421997070312	294.6739196777344	1554.30419921875	264.1799011230469	248.3178863525391	1552.420288085938	382.5267639160156	166.4724578857422	1511.023681640625	197.4586639404297	249.9641571044922	883.1452026367188	109.1296997070312	63.25916290283203	848.0631713867188	437.8902893066406	182.3919219970703	897.9473266601562	429.7127685546875	290.6808471679688	919.97314453125	214.5730590820312	390.3514099121094	496.2576293945312	190.4514312744141	344.1923828125	640.8357543945312	152.4584503173828	451.2636108398438	58.70325469970703	180.7725372314453	420.9489440917969	345.85107421875	181.4295806884766	586.2930297851562	110.0995407104492	318.9620056152344	511.0474853515625	84.57218170166016	318.1732788085938	548.7329711914062	80.21257781982422	220.4467163085938	384.4873352050781	43.32641983032227	217.3525848388672	95.64276123046875	460.6475524902344	372.9028625488281	-5.978536128997803	48.12836837768555	260.2445678710938	95.07302856445312	316.6139221191406	336.5713195800781	191.2135467529297	37.03144073486328	316.02001953125	150.8897857666016	40.7115478515625	251.7273559570312	86.36003112792969	40.8426399230957	325.5090942382812	-30.68665504455566	41.53635787963867	193.7122650146484	93.84111785888672	717.3170166015625	441.5869445800781	
538	5.37	31.51968765258789	947.9161987304688	280.923828125	89.30591583251953	945.02490234375	171.5656280517578	59.11572647094727	1024.171752929688	229.1016998291016	260.9199829101562	1178.525512695312	313.9567565917969	43.96216201782227	1129.552490234375	229.2956695556641	95.370361328125	1356.91943359375	253.9350738525391	231.1364135742188	1275.235595703125	304.6888427734375	8.86827564239502	1238.977661132812	311.9745788574219	97.91110229492188	1306.160034179688	160.9261169433594	214.5262603759766	1346.636108398438	125.7399368286133	218.1664428710938	1220.272583007812	63.23734283447266	227.0328979492188	1011.749084472656	34.92683792114258	133.570556640625	1005.40087890625	70.74201202392578	306.8941040039062	835.694091796875	100.7537460327148	251.2105865478516	795.5787963867188	37.16861724853516	248.8010101318359	939.492919921875	39.31515884399414	324.5525512695312	679.127197265625	109.6870880126953	278.3089904785156	743.9168701171875	47.92932510375977	329.8955383300781	759.9819946289062	84.243408203125	90.66899871826172	1348.0537109375	412.0619201660156	50.80928039550781	1281.31689453125	457.6954345703125	21.6511402130127	1013.833862304688	494.1584777832031	-16.29260063171387	1000.912414550781	440.9441833496094	123.7875137329102	812.886962890625	501.0522766113281	34.62699890136719	791.1937866210938	514.1373291015625	21.54414558410645	958.731201171875	501.1302795410156	120.7832794189453	654.5877075195312	509.8812866210938	128.0432586669922	723.1588745117188	531.4661865234375	57.06360244750977	718.6597290039062	526.5802001953125	123.9098739624023	1509.689453125	353.015380859375	298.3907165527344	1553.401977539062	265.448486328125	251.8708343505859	1551.632202148438	383.73193359375	170.1018829345703	1510.299926757812	198.5921936035156	253.7691345214844	882.4683837890625	110.3577880859375	66.579833984375	847.68017578125	438.8702697753906	185.8884735107422	897.4617309570312	430.8904113769531	294.326416015625	919.3053588867188	215.8099975585938	393.1850280761719	495.5350646972656	191.6359710693359	347.4321594238281	640.063232421875	153.7919616699219	458.4938659667969	58.43338012695312	184.761962890625	425.14697265625	345.2701721191406	183.4275360107422	592.4188232421875	112.0893096923828	322.9043884277344	517.4739379882812	85.77634429931641	322.1273498535156	555.6207885742188	80.997314453125	224.5455169677734	391.7409362792969	42.54351806640625	221.2153930664062	97.56077575683594	460.3407287597656	373.4532470703125	-5.909355163574219	48.26369094848633	260.2637634277344	96.32920074462891	316.3526306152344	336.8828735351562	191.2123718261719	37.01423263549805	316.0155639648438	150.8513336181641	40.66212463378906	251.7121429443359	86.39260864257812	40.83906936645508	325.53759765625	-30.68709182739258	41.85437774658203	193.7191467285156	96.906982421875	716.9166259765625	442.4574279785156	
